<?xml version="1.0" encoding="utf-8" ?>
<svg baseProfile="tiny" height="1890px" preserveAspectRatio="xMidYMid meet" version="1.2" viewBox="0 0 1200 1890" width="100%" xmlns="http://www.w3.org/2000/svg" xmlns:ev="http://www.w3.org/2001/xml-events" xmlns:xlink="http://www.w3.org/1999/xlink"><defs><rect height="10" id="legend_rect" width="10" x="0" y="0" /></defs><g font-family="Helvetica, Arial, sans-serif"><rect fill="white" height="100%" stroke="#f0f0f0" stroke-width="1" width="100%" x="0%" y="0%" /><text fill="dodgerblue" font-size="24" font-weight="bold" text-anchor="middle" x="50%" y="25.0">Amateur radio band plan</text><image height="72" width="72" x="10%" xlink:href="/home/corrado/programming/spiderweb/static/images/icons/spider_ico_master.svg" y="2.0" /><use fill="#FFD700" x="980" xlink:href="#legend_rect" y="50" /><text fill="black" font-size="12px" text-anchor="start" x="995" y="55.0">cw</text><use fill="#1E90FF" x="1080" xlink:href="#legend_rect" y="50" /><text fill="black" font-size="12px" text-anchor="start" x="1095" y="55.0">digi</text><use fill="#00BFFF" x="980" xlink:href="#legend_rect" y="65" /><text fill="black" font-size="12px" text-anchor="start" x="995" y="70.0">digi-ft4</text><use fill="#000080" x="1080" xlink:href="#legend_rect" y="65" /><text fill="black" font-size="12px" text-anchor="start" x="1095" y="70.0">digi-ft8</text><use fill="#3CB371" x="980" xlink:href="#legend_rect" y="80" /><text fill="black" font-size="12px" text-anchor="start" x="995" y="85.0">phone</text><line stroke="black" stroke-dasharray="2,3" stroke-width="1" x1="120" x2="1180" y1="95" y2="95" /><text fill="black" font-size="16" font-weight="bold" text-anchor="end" x="120" y="112">160</text><text fill="black" font-size="12" text-anchor="end" x="120" y="124">1.81-2 MHz</text><rect fill="#FFD700" height="10" width="153.2632" x="140.0" y="96" /><text font-size="10" text-anchor="start" x="140.0" y="116">1.81</text><text font-size="10" text-anchor="end" x="293.2631578947368" y="116">1.838</text><rect fill="#1E90FF" height="10" width="21.8947" x="293.2632" y="118" /><text font-size="10" text-anchor="end" x="293.2631578947368" y="138">1.838</text><text font-size="10" text-anchor="start" x="315.1578947368421" y="138">1.842</text><rect fill="#3CB371" height="10" width="43.7895" x="315.1579" y="184" /><text font-size="10" text-anchor="end" x="315.1578947368421" y="204">1.842</text><text font-size="10" text-anchor="start" x="358.9473684210526" y="204">1.85</text><rect fill="#000080" height="5.0" transform="rotate(45, 306.6736842105266, 164.5)" width="5.0" x="304.1737" y="162" /><text font-size="10" text-anchor="middle" x="306.6736842105266" y="182">1.84</text><line stroke="black" stroke-dasharray="2,3" stroke-width="1" x1="120" x2="1180" y1="206" y2="206" /><text fill="black" font-size="16" font-weight="bold" text-anchor="end" x="120" y="223">80</text><text fill="black" font-size="12" text-anchor="end" x="120" y="235">3.5-3.8 MHz</text><rect fill="#FFD700" height="10" width="277.3333" x="140.0" y="207" /><text font-size="10" text-anchor="start" x="140.0" y="227">3.5</text><text font-size="10" text-anchor="end" x="417.3333333333333" y="227">3.58</text><rect fill="#1E90FF" height="10" width="104.0" x="382.6667" y="229" /><text font-size="10" text-anchor="start" x="382.66666666666663" y="249">3.57</text><text font-size="10" text-anchor="end" x="486.66666666666663" y="249">3.6</text><rect fill="#3CB371" height="10" width="693.3333" x="486.6667" y="295" /><text font-size="10" text-anchor="start" x="486.66666666666663" y="315">3.6</text><text font-size="10" text-anchor="end" x="1180.0" y="315">3.8</text><rect fill="#000080" height="5.0" transform="rotate(45, 394.62666666666684, 275.5)" width="5.0" x="392.1267" y="273" /><text font-size="10" text-anchor="middle" x="394.62666666666684" y="293">3.573</text><rect fill="#00BFFF" height="5.0" transform="rotate(45, 377.2933333333335, 253.5)" width="5.0" x="374.7933" y="251" /><text font-size="10" text-anchor="middle" x="377.2933333333335" y="271">3.568</text><line stroke="black" stroke-dasharray="2,3" stroke-width="1" x1="120" x2="1180" y1="317" y2="317" /><text fill="black" font-size="16" font-weight="bold" text-anchor="end" x="120" y="334">60</text><text fill="black" font-size="12" text-anchor="end" x="120" y="346">5.351-5.367 MHz</text><rect fill="#FFD700" height="10" width="173.3333" x="140.0" y="318" /><text font-size="10" text-anchor="start" x="140.0" y="338">5.351</text><text font-size="10" text-anchor="end" x="313.3333333333333" y="338">5.354</text><rect fill="#FFD700" height="5.0" transform="rotate(45, 1162.6666666666667, 320.5)" width="5.0" x="1160.1667" y="318" /><text font-size="10" text-anchor="middle" x="1162.6666666666667" y="338">5.366</text><rect fill="#3CB371" height="10" width="832.0" x="313.3333" y="406" /><text font-size="10" text-anchor="start" x="313.3333333333333" y="426">5.354</text><text font-size="10" text-anchor="end" x="1145.3333333333335" y="426">5.366</text><rect fill="#000080" height="5.0" transform="rotate(45, 552.5333333333207, 386.5)" width="5.0" x="550.0333" y="384" /><text font-size="10" text-anchor="middle" x="552.5333333333207" y="404">5.357</text><line stroke="black" stroke-dasharray="2,3" stroke-width="1" x1="120" x2="1180" y1="428" y2="428" /><text fill="black" font-size="16" font-weight="bold" text-anchor="end" x="120" y="445">40</text><text fill="black" font-size="12" text-anchor="end" x="120" y="457">7-7.2 MHz</text><rect fill="#FFD700" height="10" width="207.48" x="140.0" y="429" /><text font-size="10" text-anchor="start" x="140.0" y="449">7</text><text font-size="10" text-anchor="end" x="347.4799999999981" y="449">7.04</text><rect fill="#1E90FF" height="10" width="208.0" x="348.0" y="451" /><text font-size="10" text-anchor="start" x="348.0" y="471">7.04</text><text font-size="10" text-anchor="end" x="556.0" y="471">7.08</text><rect fill="#3CB371" height="10" width="618.8" x="561.2" y="517" /><text font-size="10" text-anchor="start" x="561.2" y="537">7.081</text><text font-size="10" text-anchor="end" x="1180.0" y="537">7.2</text><rect fill="#000080" height="5.0" transform="rotate(45, 527.139999999999, 497.5)" width="5.0" x="524.64" y="495" /><text font-size="10" text-anchor="middle" x="527.139999999999" y="515">7.074</text><rect fill="#00BFFF" height="5.0" transform="rotate(45, 388.3, 475.5)" width="5.0" x="385.8" y="473" /><text font-size="10" text-anchor="middle" x="388.3" y="493">7.048</text><line stroke="black" stroke-dasharray="2,3" stroke-width="1" x1="120" x2="1180" y1="539" y2="539" /><text fill="black" font-size="16" font-weight="bold" text-anchor="end" x="120" y="556">30</text><text fill="black" font-size="12" text-anchor="end" x="120" y="568">10.1-10.15 MHz</text><rect fill="#FFD700" height="10" width="621.92" x="140.0" y="540" /><text font-size="10" text-anchor="start" x="140.0" y="560">10.1</text><text font-size="10" text-anchor="end" x="761.9199999999925" y="560">10.13</text><rect fill="#1E90FF" height="10" width="416.0" x="764.0" y="562" /><text font-size="10" text-anchor="start" x="764.0" y="582">10.13</text><text font-size="10" text-anchor="end" x="1180.0" y="582">10.15</text><rect fill="#000080" height="5.0" transform="rotate(45, 835.7599999999961, 608.5)" width="5.0" x="833.26" y="606" /><text font-size="10" text-anchor="middle" x="835.7599999999961" y="626">10.133</text><rect fill="#000080" height="5.0" transform="rotate(45, 898.1599999999962, 608.5)" width="5.0" x="895.66" y="606" /><text font-size="10" text-anchor="middle" x="898.1599999999962" y="626">10.136</text><rect fill="#00BFFF" height="5.0" transform="rotate(45, 981.3599999999963, 586.5)" width="5.0" x="978.86" y="584" /><text font-size="10" text-anchor="middle" x="981.3599999999963" y="604">10.14</text><line stroke="black" stroke-dasharray="2,3" stroke-width="1" x1="120" x2="1180" y1="650" y2="650" /><text fill="black" font-size="16" font-weight="bold" text-anchor="end" x="120" y="667">20</text><text fill="black" font-size="12" text-anchor="end" x="120" y="679">14-14.35 MHz</text><rect fill="#FFD700" height="10" width="207.7029" x="140.0" y="651" /><text font-size="10" text-anchor="start" x="140.0" y="671">14</text><text font-size="10" text-anchor="end" x="347.70285714285603" y="671">14.07</text><rect fill="#1E90FF" height="10" width="74.2857" x="348.0" y="673" /><text font-size="10" text-anchor="end" x="348.0" y="693">14.07</text><text font-size="10" text-anchor="start" x="422.2857142857143" y="693">14.095</text><rect fill="#3CB371" height="10" width="742.8571" x="437.1429" y="739" /><text font-size="10" text-anchor="start" x="437.1428571428571" y="759">14.1</text><text font-size="10" text-anchor="end" x="1180.0" y="759">14.35</text><rect fill="#000080" height="5.0" transform="rotate(45, 361.2228571428566, 719.5)" width="5.0" x="358.7229" y="717" /><text font-size="10" text-anchor="middle" x="361.2228571428566" y="737">14.074</text><rect fill="#00BFFF" height="5.0" transform="rotate(45, 379.051428571428, 697.5)" width="5.0" x="376.5514" y="695" /><text font-size="10" text-anchor="middle" x="379.051428571428" y="715">14.08</text><line stroke="black" stroke-dasharray="2,3" stroke-width="1" x1="120" x2="1180" y1="761" y2="761" /><text fill="black" font-size="16" font-weight="bold" text-anchor="end" x="120" y="778">17</text><text fill="black" font-size="12" text-anchor="end" x="120" y="790">18.068-18.168 MHz</text><rect fill="#FFD700" height="10" width="279.76" x="140.0" y="762" /><text font-size="10" text-anchor="start" x="140.0" y="782">18.068</text><text font-size="10" text-anchor="end" x="419.76000000001517" y="782">18.095</text><rect fill="#1E90FF" height="10" width="52.0" x="472.8" y="784" /><text font-size="10" text-anchor="end" x="472.8" y="804">18.1</text><text font-size="10" text-anchor="start" x="524.8" y="804">18.105</text><rect fill="#3CB371" height="10" width="655.2" x="524.8" y="850" /><text font-size="10" text-anchor="start" x="524.8" y="870">18.105</text><text font-size="10" text-anchor="end" x="1180.0" y="870">18.168</text><rect fill="#000080" height="5.0" transform="rotate(45, 477.4800000000076, 830.5)" width="5.0" x="474.98" y="828" /><text font-size="10" text-anchor="middle" x="477.4800000000076" y="848">18.1</text><rect fill="#00BFFF" height="5.0" transform="rotate(45, 519.0800000000075, 808.5)" width="5.0" x="516.58" y="806" /><text font-size="10" text-anchor="middle" x="519.0800000000075" y="826">18.104</text><line stroke="black" stroke-dasharray="2,3" stroke-width="1" x1="120" x2="1180" y1="872" y2="872" /><text fill="black" font-size="16" font-weight="bold" text-anchor="end" x="120" y="889">15</text><text fill="black" font-size="12" text-anchor="end" x="120" y="901">21-21.45 MHz</text><rect fill="#FFD700" height="10" width="161.5467" x="140.0" y="873" /><text font-size="10" text-anchor="start" x="140.0" y="893">21</text><text font-size="10" text-anchor="end" x="301.54666666667003" y="893">21.07</text><rect fill="#1E90FF" height="10" width="69.3333" x="301.7778" y="895" /><text font-size="10" text-anchor="start" x="301.77777777777777" y="915">21.07</text><text font-size="10" text-anchor="end" x="371.1111111111111" y="915">21.1</text><rect fill="#1E90FF" height="5.0" transform="rotate(45, 464.7111111111111, 897.5)" width="5.0" x="462.2111" y="895" /><text font-size="10" text-anchor="middle" x="464.7111111111111" y="915">21.14</text><rect fill="#3CB371" height="10" width="90.1333" x="371.1111" y="961" /><text font-size="10" text-anchor="start" x="371.1111111111111" y="981">21.1</text><text font-size="10" text-anchor="end" x="461.2444444444444" y="981">21.139</text><rect fill="#3CB371" height="10" width="714.1333" x="465.8667" y="961" /><text font-size="10" text-anchor="start" x="465.8666666666667" y="981">21.141</text><text font-size="10" text-anchor="end" x="1180.0" y="981">21.45</text><rect fill="#000080" height="5.0" transform="rotate(45, 312.0622222222239, 941.5)" width="5.0" x="309.5622" y="939" /><text font-size="10" text-anchor="middle" x="312.0622222222239" y="959">21.074</text><rect fill="#00BFFF" height="5.0" transform="rotate(45, 464.5955555555572, 919.5)" width="5.0" x="462.0956" y="917" /><text font-size="10" text-anchor="middle" x="464.5955555555572" y="937">21.14</text><line stroke="black" stroke-dasharray="2,3" stroke-width="1" x1="120" x2="1180" y1="983" y2="983" /><text fill="black" font-size="16" font-weight="bold" text-anchor="end" x="120" y="1000">12</text><text fill="black" font-size="12" text-anchor="end" x="120" y="1012">24.89-24.99 MHz</text><rect fill="#FFD700" height="10" width="258.96" x="140.0" y="984" /><text font-size="10" text-anchor="start" x="140.0" y="1004">24.89</text><text font-size="10" text-anchor="end" x="398.9600000000151" y="1004">24.915</text><rect fill="#1E90FF" height="10" width="156.0" x="400.0" y="1006" /><text font-size="10" text-anchor="start" x="400.0" y="1026">24.915</text><text font-size="10" text-anchor="end" x="556.0" y="1026">24.93</text><rect fill="#3CB371" height="10" width="624.0" x="556.0" y="1072" /><text font-size="10" text-anchor="start" x="556.0" y="1092">24.93</text><text font-size="10" text-anchor="end" x="1180.0" y="1092">24.99</text><rect fill="#000080" height="5.0" transform="rotate(45, 404.68000000000757, 1052.5)" width="5.0" x="402.18" y="1050" /><text font-size="10" text-anchor="middle" x="404.68000000000757" y="1070">24.915</text><rect fill="#00BFFF" height="5.0" transform="rotate(45, 446.28000000000753, 1030.5)" width="5.0" x="443.78" y="1028" /><text font-size="10" text-anchor="middle" x="446.28000000000753" y="1048">24.919</text><line stroke="black" stroke-dasharray="2,3" stroke-width="1" x1="120" x2="1180" y1="1094" y2="1094" /><text fill="black" font-size="16" font-weight="bold" text-anchor="end" x="120" y="1111">10</text><text fill="black" font-size="12" text-anchor="end" x="120" y="1123">28-29.7 MHz</text><rect fill="#FFD700" height="10" width="42.7624" x="140.0" y="1095" /><text font-size="10" text-anchor="end" x="140.0" y="1115">28</text><text font-size="10" text-anchor="start" x="182.76235294117737" y="1115">28.07</text><rect fill="#1E90FF" height="10" width="30.5882" x="182.8235" y="1117" /><text font-size="10" text-anchor="end" x="182.8235294117647" y="1137">28.07</text><text font-size="10" text-anchor="start" x="213.41176470588235" y="1137">28.12</text><rect fill="#3CB371" height="10" width="966.5882" x="213.4118" y="1183" /><text font-size="10" text-anchor="start" x="213.41176470588235" y="1203">28.12</text><text font-size="10" text-anchor="end" x="1180.0" y="1203">29.7</text><rect fill="#000080" height="5.0" transform="rotate(45, 185.54588235294162, 1163.5)" width="5.0" x="183.0459" y="1161" /><text font-size="10" text-anchor="middle" x="185.54588235294162" y="1181">28.074</text><rect fill="#00BFFF" height="5.0" transform="rotate(45, 250.39294117647103, 1141.5)" width="5.0" x="247.8929" y="1139" /><text font-size="10" text-anchor="middle" x="250.39294117647103" y="1159">28.18</text><line stroke="black" stroke-dasharray="2,3" stroke-width="1" x1="120" x2="1180" y1="1205" y2="1205" /><text fill="black" font-size="16" font-weight="bold" text-anchor="end" x="120" y="1222">6</text><text fill="black" font-size="12" text-anchor="end" x="120" y="1234">50-54 MHz</text><rect fill="#FFD700" height="10" width="25.974" x="140.0" y="1206" /><text font-size="10" text-anchor="end" x="140.0" y="1226">50</text><text font-size="10" text-anchor="start" x="165.9740000000004" y="1226">50.1</text><rect fill="#1E90FF" height="10" width="975.0" x="205.0" y="1228" /><text font-size="10" text-anchor="start" x="205.0" y="1248">50.25</text><text font-size="10" text-anchor="end" x="1180.0" y="1248">54</text><rect fill="#3CB371" height="10" width="55.354" x="166.0" y="1294" /><text font-size="10" text-anchor="end" x="166.0" y="1314">50.1</text><text font-size="10" text-anchor="start" x="221.35400000000038" y="1314">50.313</text><rect fill="#3CB371" height="10" width="958.594" x="221.406" y="1294" /><text font-size="10" text-anchor="start" x="221.4059999999996" y="1314">50.313</text><text font-size="10" text-anchor="end" x="1180.0" y="1314">54</text><rect fill="#000080" height="10" width="2.6" x="221.38" y="1272" /><text font-size="10" text-anchor="end" x="221.38" y="1292">50.313</text><text font-size="10" text-anchor="start" x="223.98000000000002" y="1292">50.323</text><rect fill="#00BFFF" height="5.0" transform="rotate(45, 222.7970000000002, 1252.5)" width="5.0" x="220.297" y="1250" /><text font-size="10" text-anchor="middle" x="222.7970000000002" y="1270">50.318</text><line stroke="black" stroke-dasharray="2,3" stroke-width="1" x1="120" x2="1180" y1="1316" y2="1316" /><text fill="black" font-size="16" font-weight="bold" text-anchor="end" x="120" y="1333">VHF</text><text fill="black" font-size="12" text-anchor="end" x="120" y="1345">144-146 MHz</text><rect fill="#FFD700" height="10" width="64.948" x="153.0" y="1317" /><text font-size="10" text-anchor="end" x="153.0" y="1337">144.025</text><text font-size="10" text-anchor="start" x="217.94799999999697" y="1337">144.15</text><rect fill="#FFD700" height="10" width="48.308" x="348.0" y="1317" /><text font-size="10" text-anchor="end" x="348.0" y="1337">144.4</text><text font-size="10" text-anchor="start" x="396.307999999997" y="1337">144.493</text><rect fill="#1E90FF" height="10" width="448.5" x="192.0" y="1339" /><text font-size="10" text-anchor="start" x="192.0" y="1359">144.1</text><text font-size="10" text-anchor="end" x="640.5" y="1359">144.963</text><rect fill="#1E90FF" height="10" width="100.88" x="1079.12" y="1339" /><text font-size="10" text-anchor="start" x="1079.12" y="1359">145.806</text><text font-size="10" text-anchor="end" x="1180.0" y="1359">146</text><rect fill="#3CB371" height="10" width="130.0" x="218.0" y="1405" /><text font-size="10" text-anchor="start" x="218.0" y="1425">144.15</text><text font-size="10" text-anchor="end" x="348.0" y="1425">144.4</text><rect fill="#3CB371" height="10" width="780.0" x="400.0" y="1405" /><text font-size="10" text-anchor="start" x="400.0" y="1425">144.5</text><text font-size="10" text-anchor="end" x="1180.0" y="1425">146</text><rect fill="#000080" height="5.0" transform="rotate(45, 230.71399999999846, 1385.5)" width="5.0" x="228.214" y="1383" /><text font-size="10" text-anchor="middle" x="230.71399999999846" y="1403">144.174</text><rect fill="#00BFFF" height="5.0" transform="rotate(45, 228.63399999999848, 1363.5)" width="5.0" x="226.134" y="1361" /><text font-size="10" text-anchor="middle" x="228.63399999999848" y="1381">144.17</text><line stroke="black" stroke-dasharray="2,3" stroke-width="1" x1="120" x2="1180" y1="1427" y2="1427" /><text fill="black" font-size="16" font-weight="bold" text-anchor="end" x="120" y="1444">UHF</text><text fill="black" font-size="12" text-anchor="end" x="120" y="1456">430-444 MHz</text><rect fill="#FFD700" height="10" width="7.4211" x="288.5714" y="1428" /><text font-size="10" text-anchor="end" x="288.57142857142856" y="1448">432</text><text font-size="10" text-anchor="start" x="295.99257142857317" y="1448">432.1</text><rect fill="#FFD700" height="5.0" transform="rotate(45, 310.5934285714294, 1430.5)" width="5.0" x="308.0934" y="1428" /><text font-size="10" text-anchor="middle" x="310.5934285714294" y="1448">432.4</text><rect fill="#3CB371" height="10" width="26.0" x="299.7143" y="1516" /><text font-size="10" text-anchor="end" x="299.7142857142857" y="1536">432.15</text><text font-size="10" text-anchor="start" x="325.7142857142857" y="1536">432.5</text><rect fill="#000080" height="5.0" transform="rotate(45, 301.53057142857233, 1496.5)" width="5.0" x="299.0306" y="1494" /><text font-size="10" text-anchor="middle" x="301.53057142857233" y="1514">432.174</text><line stroke="black" stroke-dasharray="2,3" stroke-width="1" x1="120" x2="1180" y1="1538" y2="1538" /><text fill="black" font-size="16" font-weight="bold" text-anchor="end" x="120" y="1555">SHF</text><text fill="black" font-size="12" text-anchor="end" x="120" y="1567">3.4-24.25 GHz</text><rect fill="#FFD700" height="10" width="0.0496" x="140.0" y="1539" /><text font-size="10" text-anchor="end" x="140.0" y="1559">3.4</text><text font-size="10" text-anchor="start" x="140.04962570743405" y="1559">3.401</text><rect fill="#1E90FF" height="10" width="0.0998" x="487.5645" y="1561" /><text font-size="10" text-anchor="end" x="487.56450839328534" y="1581">10.368</text><text font-size="10" text-anchor="start" x="487.6642685851319" y="1581">10.37</text><rect fill="#1E90FF" height="10" width="0.0998" x="1169.9242" y="1561" /><text font-size="10" text-anchor="end" x="1169.9242206235012" y="1581">24.048</text><text font-size="10" text-anchor="start" x="1170.0239808153476" y="1581">24.05</text><rect fill="#3CB371" height="10" width="0.0998" x="140.0" y="1627" /><text font-size="10" text-anchor="end" x="140.0" y="1647">3.4</text><text font-size="10" text-anchor="start" x="140.0997601918465" y="1647">3.402</text><rect fill="#3CB371" height="10" width="0.0998" x="253.1281" y="1627" /><text font-size="10" text-anchor="end" x="253.12805755395684" y="1647">5.668</text><text font-size="10" text-anchor="start" x="253.22781774580335" y="1647">5.67</text><rect fill="#3CB371" height="10" width="0.0998" x="257.717" y="1627" /><text font-size="10" text-anchor="end" x="257.7170263788969" y="1647">5.76</text><text font-size="10" text-anchor="start" x="257.8167865707434" y="1647">5.762</text><rect fill="#3CB371" height="10" width="0.0998" x="487.5645" y="1627" /><text font-size="10" text-anchor="end" x="487.56450839328534" y="1647">10.368</text><text font-size="10" text-anchor="start" x="487.6642685851319" y="1647">10.37</text><rect fill="#3CB371" height="10" width="0.0998" x="491.6547" y="1627" /><text font-size="10" text-anchor="end" x="491.6546762589928" y="1647">10.45</text><text font-size="10" text-anchor="start" x="491.75443645083936" y="1647">10.452</text><rect fill="#3CB371" height="10" width="0.0998" x="1169.9242" y="1627" /><text font-size="10" text-anchor="end" x="1169.9242206235012" y="1647">24.048</text><text font-size="10" text-anchor="start" x="1170.0239808153476" y="1647">24.05</text><rect fill="#f0f0f0" height="30" width="1200" x="0" y="1843.3333" /><a target="_blank" xlink:href="https://github.com/coulisse/spiderweb/"><text fill="blue" font-size="12" text-anchor="start" x="140" y="1858.3333333333333">IU1BOW - Spiderweb</text></a><text fill="black" font-size="12" text-anchor="end" x="1180" y="1858.3333333333333">27/04/2025</text></g></svg>